<?xml version="1.0" encoding="UTF-8"?>
<svg id="Layer_1" xmlns="http://www.w3.org/2000/svg" version="1.1" viewBox="0 0 1239.64 908.52">
  <!-- Generator: Adobe Illustrator 29.8.2, SVG Export Plug-In . SVG Version: 2.1.1 Build 3)  -->
  <defs>
    <style>
      .st0 {
        fill: #8fcab9;
        stroke: #8fcab9;
        stroke-miterlimit: 10;
        stroke-width: .75px;
      }

      .st1 {
        fill: #a9c47f;
      }

      .st2 {
        fill: #b1e4e3;
      }

      .st3 {
        fill: #468a89;
      }

      .st4 {
        fill: #005a6f;
      }

      .st5 {
        fill: #595478;
      }

      .st6 {
        fill: #76787a;
      }
    </style>
  </defs>
  <path class="st0" d="M811.2,439.61c-3.05-87.19-42.69-167.68-111.63-226.67-65.3-55.86-151.74-87.14-237.16-85.76-199.93,3.19-350.7,139.27-350.7,316.53s157.33,316.53,350.72,316.53c100.46,0,196.52-39.58,263.54-108.6,8.74-9,16.83-18.36,24.29-28.04-.66-.27-1.29-.58-1.89-.93-7.34,9.5-15.3,18.71-23.88,27.54-66.64,68.62-162.16,107.97-262.06,107.97-192.24,0-348.65-141.07-348.65-314.47S263.68,132.42,462.45,129.25c1.73-.03,3.46-.04,5.2-.04,160.03,0,334.75,117.51,341.49,310.48.82,23.52-1.44,46.85-6.6,69.59h2.12c5.13-22.77,7.38-46.12,6.55-69.67Z"/>
  <path class="st5" d="M201.51,356.96c0-4.16,1.51-7.74,4.54-10.74,3.03-3,6.64-4.5,10.83-4.5s7.8,1.5,10.83,4.5c3.03,3,4.54,6.59,4.54,10.74s-1.51,7.74-4.54,10.74-6.64,4.5-10.83,4.5-7.8-1.5-10.83-4.5c-3.03-3-4.54-6.59-4.54-10.74ZM206.41,396.23h20.96v109.51h-20.96v-109.51Z"/>
  <path class="st5" d="M253.16,396.23h20.36v16.87h.45c2.56-5.85,7.01-10.59,13.35-14.21,6.33-3.62,13.65-5.43,21.95-5.43,5.13,0,10.07.81,14.82,2.43,4.75,1.62,8.9,4.12,12.44,7.51,3.54,3.39,6.37,7.74,8.48,13.05,2.11,5.31,3.17,11.59,3.17,18.83v70.46h-20.36v-64.69c0-5.08-.68-9.43-2.04-13.05-1.36-3.62-3.17-6.55-5.43-8.78-2.26-2.23-4.86-3.85-7.81-4.85-2.94-1-6-1.5-9.16-1.5-4.22,0-8.14.69-11.76,2.08-3.62,1.39-6.79,3.58-9.5,6.58-2.72,3-4.83,6.82-6.33,11.44-1.51,4.62-2.26,10.09-2.26,16.4v56.37h-20.36v-109.51Z"/>
  <path class="st5" d="M431.22,422.34c-2.51-3.08-5.61-5.66-9.3-7.74-3.69-2.08-8.2-3.12-13.54-3.12-5.02,0-9.38,1.04-13.07,3.12-3.69,2.08-5.53,5.12-5.53,9.13,0,3.23,1.06,5.85,3.18,7.86,2.12,2,4.63,3.62,7.53,4.85,2.9,1.23,6,2.16,9.3,2.77,3.3.62,6.12,1.15,8.48,1.62,4.55,1.08,8.83,2.39,12.83,3.93,4,1.54,7.45,3.55,10.36,6.01,2.9,2.47,5.18,5.47,6.83,9.01,1.65,3.55,2.47,7.86,2.47,12.94,0,6.16-1.34,11.44-4,15.83-2.67,4.39-6.12,7.97-10.36,10.74-4.24,2.77-9.06,4.77-14.48,6.01-5.41,1.23-10.87,1.85-16.36,1.85-9.26,0-17.39-1.39-24.37-4.16-6.99-2.77-13.22-7.86-18.72-15.25l16.01-12.94c3.45,3.39,7.3,6.39,11.54,9.01,4.24,2.62,9.42,3.93,15.54,3.93,2.67,0,5.37-.27,8.12-.81,2.75-.54,5.18-1.39,7.3-2.54,2.12-1.15,3.84-2.62,5.18-4.39,1.33-1.77,2-3.81,2-6.12,0-3.08-.98-5.62-2.94-7.62-1.96-2-4.32-3.58-7.06-4.74-2.75-1.16-5.65-2.08-8.71-2.77-3.06-.69-5.77-1.27-8.12-1.73-4.55-1.08-8.87-2.31-12.95-3.7-4.08-1.39-7.69-3.24-10.83-5.55-3.14-2.31-5.65-5.23-7.53-8.78-1.88-3.54-2.82-7.93-2.82-13.17,0-5.7,1.21-10.66,3.65-14.9,2.43-4.23,5.65-7.74,9.65-10.51,4-2.77,8.55-4.85,13.66-6.24,5.1-1.39,10.24-2.08,15.42-2.08,7.53,0,14.75,1.39,21.66,4.16,6.9,2.77,12.4,7.39,16.48,13.86l-16.48,12.24Z"/>
  <path class="st5" d="M616.46,505.74h-21.58v-15.71h-.48c-4.16,5.85-9.87,10.4-17.15,13.63-7.28,3.24-14.75,4.85-22.42,4.85-8.79,0-16.75-1.46-23.86-4.39-7.12-2.92-13.19-7.01-18.22-12.24-5.04-5.23-8.91-11.32-11.63-18.25-2.72-6.93-4.08-14.48-4.08-22.64s1.36-15.75,4.08-22.76c2.72-7.01,6.59-13.09,11.63-18.25,5.04-5.16,11.11-9.2,18.22-12.13,7.11-2.92,15.07-4.39,23.86-4.39,8.15,0,15.83,1.66,23.02,4.97,7.19,3.31,12.71,7.82,16.55,13.52h.48v-80.86h21.58v174.66ZM557.47,489.11c5.76,0,10.95-.96,15.59-2.89,4.63-1.92,8.55-4.54,11.75-7.85,3.2-3.31,5.67-7.31,7.43-12.01,1.76-4.7,2.64-9.82,2.64-15.36s-.88-10.66-2.64-15.36c-1.76-4.7-4.24-8.7-7.43-12.01-3.2-3.31-7.12-5.93-11.75-7.86-4.64-1.92-9.83-2.89-15.59-2.89s-10.95.96-15.59,2.89c-4.64,1.93-8.55,4.55-11.75,7.86-3.2,3.31-5.68,7.32-7.43,12.01-1.76,4.7-2.64,9.82-2.64,15.36s.88,10.67,2.64,15.36c1.76,4.7,4.23,8.7,7.43,12.01,3.2,3.31,7.11,5.93,11.75,7.85,4.63,1.93,9.83,2.89,15.59,2.89Z"/>
  <path class="st5" d="M655.47,458.61c0,4.77,1.03,9.13,3.1,13.05,2.07,3.93,4.79,7.28,8.17,10.05,3.37,2.77,7.28,4.93,11.73,6.47,4.45,1.54,9.05,2.31,13.8,2.31,6.44,0,12.04-1.5,16.8-4.51,4.75-3,9.12-6.97,13.11-11.9l15.65,12.01c-11.5,14.94-27.61,22.41-48.32,22.41-8.59,0-16.37-1.46-23.35-4.39-6.98-2.92-12.88-6.97-17.72-12.13-4.83-5.16-8.55-11.24-11.16-18.25-2.61-7.01-3.91-14.59-3.91-22.76s1.42-15.75,4.26-22.76c2.83-7.01,6.75-13.09,11.73-18.25,4.98-5.16,10.93-9.2,17.83-12.13,6.9-2.92,14.42-4.39,22.55-4.39,9.66,0,17.83,1.7,24.5,5.08,6.67,3.39,12.15,7.82,16.45,13.28,4.29,5.47,7.4,11.63,9.32,18.48,1.92,6.86,2.88,13.83,2.88,20.91v7.39h-87.42ZM720.81,441.98c-.16-4.62-.88-8.86-2.19-12.71-1.3-3.85-3.26-7.2-5.87-10.05-2.61-2.85-5.87-5.08-9.78-6.7-3.91-1.62-8.48-2.43-13.69-2.43s-9.7.96-13.92,2.89c-4.22,1.93-7.79,4.43-10.7,7.51-2.92,3.08-5.18,6.51-6.79,10.28-1.61,3.78-2.41,7.51-2.41,11.21h65.34Z"/>
  <path class="st5" d="M874.34,450.43c0-8.12,1.53-15.7,4.6-22.73,3.07-7.03,7.27-13.2,12.62-18.51,5.34-5.31,11.63-9.49,18.87-12.54,7.23-3.05,15.01-4.57,23.35-4.57s16.12,1.52,23.35,4.57c7.23,3.05,13.52,7.23,18.87,12.54,5.34,5.31,9.55,11.48,12.62,18.51,3.07,7.03,4.6,14.61,4.6,22.73s-1.53,15.74-4.6,22.85c-3.07,7.11-7.27,13.28-12.62,18.51-5.35,5.24-11.64,9.37-18.87,12.42-7.23,3.05-15.02,4.57-23.35,4.57s-16.12-1.52-23.35-4.57c-7.23-3.05-13.52-7.18-18.87-12.42-5.35-5.23-9.55-11.4-12.62-18.51-3.07-7.11-4.6-14.72-4.6-22.85ZM896.99,450.43c0,5.62.86,10.82,2.59,15.58,1.73,4.77,4.17,8.83,7.31,12.18,3.14,3.36,7,6.02,11.56,7.97,4.56,1.96,9.67,2.93,15.33,2.93s10.77-.97,15.33-2.93c4.56-1.95,8.41-4.61,11.56-7.97,3.14-3.36,5.58-7.42,7.31-12.18,1.73-4.76,2.6-9.96,2.6-15.58s-.87-10.82-2.6-15.58c-1.73-4.76-4.17-8.82-7.31-12.18-3.15-3.36-7-6.01-11.56-7.97-4.56-1.95-9.67-2.93-15.33-2.93s-10.77.98-15.33,2.93c-4.56,1.96-8.41,4.61-11.56,7.97-3.15,3.36-5.58,7.42-7.31,12.18-1.73,4.77-2.59,9.96-2.59,15.58Z"/>
  <path class="st5" d="M1105.12,506.27h-20.46v-17.11h-.45c-2.58,5.94-7.05,10.74-13.42,14.41-6.37,3.67-13.72,5.51-22.05,5.51-5.31,0-10.31-.82-15.01-2.46-4.7-1.64-8.83-4.18-12.39-7.62-3.56-3.43-6.41-7.85-8.53-13.24-2.12-5.39-3.18-11.75-3.18-19.1v-71.47h20.46v65.61c0,5.16.68,9.57,2.05,13.24,1.36,3.67,3.18,6.64,5.46,8.9,2.28,2.27,4.89,3.91,7.84,4.92,2.96,1.02,6.03,1.52,9.21,1.52,4.24,0,8.19-.7,11.83-2.11,3.64-1.41,6.82-3.63,9.55-6.68,2.73-3.05,4.85-6.91,6.37-11.6,1.51-4.69,2.27-10.23,2.27-16.64v-57.17h20.46v111.07Z"/>
  <path class="st5" d="M1182.96,413.17h-27.69v50.38c0,3.13.07,6.21.21,9.26.14,3.05.68,5.78,1.61,8.2.93,2.42,2.36,4.37,4.29,5.86,1.93,1.49,4.76,2.23,8.48,2.23,2.29,0,4.65-.23,7.08-.7,2.43-.47,4.65-1.33,6.66-2.58v19.21c-2.29,1.41-5.26,2.38-8.91,2.93-3.65.55-6.48.82-8.48.82-7.44,0-13.2-1.14-17.28-3.4-4.08-2.26-7.08-5.19-9.02-8.79-1.93-3.59-3.08-7.62-3.43-12.07-.36-4.45-.54-8.94-.54-13.47v-57.88h-22.33v-18.28h22.33v-31.16h19.32v31.16h27.69v18.28Z"/>
  <path class="st5" d="M456.37,355.96c0-4.16,1.51-7.74,4.54-10.74,3.03-3,6.64-4.5,10.83-4.5s7.8,1.5,10.83,4.5c3.03,3,4.54,6.59,4.54,10.74s-1.51,7.74-4.54,10.74c-3.03,3-6.64,4.5-10.83,4.5s-7.8-1.5-10.83-4.5c-3.03-3-4.54-6.59-4.54-10.74ZM461.26,395.24h20.96v109.51h-20.96v-109.51Z"/>
  <path class="st3" d="M330.67,554.57l10.24,36.04h.19l11.86-36.04h6.45l11.86,36.04h.19l10.24-36.04h7.4l-14.04,44.39h-7.02l-11.76-36.42h-.19l-11.76,36.42h-7.02l-14.04-44.39h7.4Z"/>
  <path class="st3" d="M403.78,578.47c.76,8.92,7.49,15.93,16.31,15.93,6.64,0,11.76-3.7,14.23-7.68l4.84,3.98c-5.22,6.64-11.76,9.39-19.06,9.39-13.18,0-22.95-9.96-22.95-23.33s9.77-23.33,22.39-23.33c13.47.09,21.25,10.05,21.25,22.19v2.85h-36.99ZM433.94,573.35c0-8.44-5.41-14.23-14.42-14.23-8.16,0-15.56,6.92-15.56,14.23h29.97Z"/>
  <path class="st3" d="M459.83,598.95h-6.26v-71.71h6.26v71.71Z"/>
  <path class="st3" d="M482.6,598.95h-6.26v-71.71h6.26v71.71Z"/>
  <path class="st3" d="M503.66,554.57c.28,2.37.28,4.74.28,7.11h.19c2.75-4.84,9.01-8.25,14.89-8.25,11.29,0,16.69,6.35,16.69,17.36v28.17h-6.26v-24.57c0-9.86-2.75-15.27-12.05-15.27-1.33,0-13.47.85-13.47,17.07v22.76h-6.26v-34.62c0-2.37-.28-6.54-.47-9.77h6.45Z"/>
  <path class="st3" d="M554.78,578.47c.76,8.92,7.49,15.93,16.31,15.93,6.64,0,11.76-3.7,14.23-7.68l4.84,3.98c-5.22,6.64-11.76,9.39-19.06,9.39-13.18,0-22.95-9.96-22.95-23.33s9.77-23.33,22.38-23.33c13.47.09,21.25,10.05,21.25,22.19v2.85h-36.99ZM584.94,573.35c0-8.44-5.41-14.23-14.42-14.23-8.16,0-15.55,6.92-15.55,14.23h29.97Z"/>
  <path class="st3" d="M626.68,565.09c-1.9-3.6-5.03-5.97-9.58-5.97s-9.2,1.9-9.2,6.64c0,4.17,2.94,5.69,8.73,7.02l6.35,1.52c6.17,1.42,10.81,5.88,10.81,12.14,0,9.67-8.63,13.66-17.26,13.66-6.73,0-12.9-2.37-17.07-8.63l5.41-3.7c2.56,3.98,6.45,6.64,11.67,6.64s10.43-2.28,10.43-7.4c0-4.46-3.79-5.98-8.44-7.11l-6.07-1.42c-3.04-.76-11.38-3.22-11.38-11.67,0-9.2,8.06-13.37,16.41-13.37,6.17,0,11.95,2.18,14.8,7.97l-5.6,3.7Z"/>
  <path class="st3" d="M667.09,565.09c-1.9-3.6-5.03-5.97-9.58-5.97s-9.2,1.9-9.2,6.64c0,4.17,2.94,5.69,8.73,7.02l6.35,1.52c6.17,1.42,10.81,5.88,10.81,12.14,0,9.67-8.63,13.66-17.26,13.66-6.74,0-12.9-2.37-17.07-8.63l5.41-3.7c2.56,3.98,6.45,6.64,11.67,6.64s10.43-2.28,10.43-7.4c0-4.46-3.8-5.98-8.44-7.11l-6.07-1.42c-3.04-.76-11.38-3.22-11.38-11.67,0-9.2,8.06-13.37,16.41-13.37,6.17,0,11.95,2.18,14.8,7.97l-5.59,3.7Z"/>
  <path class="st3" d="M751.53,583.4l15.08,15.55h-9.67l-9.49-9.87c-5.5,7.21-11.38,11.57-20.49,11.57-11.19,0-21.06-7.11-21.06-19.16,0-9.87,7.21-16.03,15.27-19.82-3.98-4.27-7.87-9.58-7.87-15.75,0-10.05,7.3-15.84,16.79-15.84,8.92,0,16.22,5.31,16.22,15.08,0,8.82-7.87,13.85-14.8,17.45l15.46,15.93,9.2-15.93h7.68l-12.33,20.77ZM725.45,565.95c-8.82,4.93-12.14,8.73-12.14,15.65,0,7.59,6.45,12.8,13.75,12.8s11.76-4.36,16.13-9.86l-17.74-18.59ZM730.19,536.35c-5.6,0-10.05,3.79-10.05,9.86,0,4.55,4.84,10.15,7.02,12.05,5.12-2.94,12.33-6.17,12.33-13.09,0-5.31-4.17-8.82-9.3-8.82Z"/>
  <path class="st3" d="M825.47,571.73v-1.14c0-7.68-3.7-11.48-11.38-11.48-5.22,0-9.77,1.8-13.56,5.22l-3.8-4.46c4.08-4.17,10.43-6.45,18.78-6.45s16.22,4.93,16.22,15.75v19.82c0,3.42.38,7.59.76,9.96h-6.07c-.38-2.18-.57-4.84-.57-7.21h-.19c-3.6,5.88-8.54,8.35-15.65,8.35-7.87,0-15.27-4.36-15.27-13,0-14.42,16.98-15.37,27.6-15.37h3.13ZM822.25,576.86c-6.35,0-20.68.47-20.68,9.39,0,5.88,5.41,8.16,10.43,8.16,9.11,0,13.47-6.45,13.47-14.32v-3.23h-3.22Z"/>
  <path class="st3" d="M892.7,598.95h-6.26v-7.4h-.19c-4.08,5.98-11.38,8.54-17.26,8.54-13.85,0-23.62-9.96-23.62-23.33s9.77-23.33,23.62-23.33c5.88,0,13.18,2.56,17.26,8.54h.19v-34.71h6.26v71.71ZM868.98,594.4c10.24,0,17.74-7.68,17.74-17.64s-7.49-17.64-17.74-17.64-16.79,7.68-16.79,17.64,6.45,17.64,16.79,17.64Z"/>
  <path class="st3" d="M925.89,598.95h-7.02l-18.02-44.39h7.49l14.13,37.37h.19l14.13-37.37h7.11l-18.02,44.39Z"/>
  <path class="st3" d="M973.32,600.09c-13.75,0-23.52-9.96-23.52-23.33s9.77-23.33,23.52-23.33,23.62,9.96,23.62,23.33-9.77,23.33-23.62,23.33ZM973.32,559.12c-10.24,0-16.69,7.68-16.69,17.64s6.45,17.64,16.69,17.64,16.79-7.68,16.79-17.64-6.45-17.64-16.79-17.64Z"/>
  <path class="st3" d="M1042.82,565c-2.09-3.22-6.17-5.88-11.1-5.88-10.34-.19-16.7,7.49-16.7,17.64s6.36,17.83,16.7,17.64c4.93,0,9.01-2.66,11.1-5.88l5.12,3.89c-4.36,5.12-10.24,7.59-16.22,7.68-14.51.19-23.52-9.96-23.52-23.33s9.01-23.52,23.52-23.33c5.97.09,11.85,2.56,16.22,7.68l-5.12,3.89Z"/>
  <path class="st3" d="M1084.65,571.73v-1.14c0-7.68-3.7-11.48-11.38-11.48-5.22,0-9.77,1.8-13.56,5.22l-3.8-4.46c4.08-4.17,10.43-6.45,18.78-6.45s16.22,4.93,16.22,15.75v19.82c0,3.42.38,7.59.76,9.96h-6.07c-.38-2.18-.57-4.84-.57-7.21h-.19c-3.6,5.88-8.54,8.35-15.65,8.35-7.87,0-15.27-4.36-15.27-13,0-14.42,16.98-15.37,27.6-15.37h3.13ZM1081.43,576.86c-6.35,0-20.68.47-20.68,9.39,0,5.88,5.41,8.16,10.43,8.16,9.11,0,13.47-6.45,13.47-14.32v-3.23h-3.22Z"/>
  <path class="st3" d="M1137.77,565c-2.09-3.22-6.17-5.88-11.1-5.88-10.34-.19-16.69,7.49-16.69,17.64s6.35,17.83,16.69,17.64c4.93,0,9.01-2.66,11.1-5.88l5.12,3.89c-4.36,5.12-10.24,7.59-16.22,7.68-14.51.19-23.52-9.96-23.52-23.33s9.01-23.52,23.52-23.33c5.98.09,11.86,2.56,16.22,7.68l-5.12,3.89Z"/>
  <path class="st3" d="M1169.8,591.27l13.56-36.71h7.59l-22.19,55.96c-2.66,6.83-6.26,11.19-13.94,11.19-1.9,0-3.89-.09-5.79-.66l.66-6.07c1.42.76,3.04,1.04,4.74,1.04,4.36,0,6.64-2.94,8.54-7.97l3.22-8.54-18.21-44.96h7.87l13.94,36.71Z"/>
  <path class="st6" d="M750.89,621.6c-9.72,14-20.65,27.42-32.8,40.1-65.94,68.87-159.62,108.38-257,108.38-190.78,0-345.99-145.82-345.99-325.07S263.86,123.22,461.12,119.94c1.72-.03,3.43-.04,5.16-.04,158.81,0,332.19,121.47,338.89,320.94.81,24.16-1.4,48.09-6.43,71.42h2.13c5-23.35,7.19-47.31,6.38-71.49-3.02-90.11-42.37-173.31-110.78-234.28-64.8-57.75-150.64-90.07-235.38-88.65-198.42,3.3-348.05,143.95-348.05,327.17s156.14,327.17,348.06,327.17c97.94,0,192.16-39.73,258.49-109.01,12.57-13.13,23.86-27.03,33.85-41.56h-2.54Z"/>
  <path class="st4" d="M771.04,621.6c-11.98,20.37-26.47,39.69-43.36,57.59-66.21,70.14-161.12,110.36-260.38,110.36-191.01,0-346.41-144.2-346.41-321.44S269.81,149.92,467.31,146.67c1.72-.03,3.44-.04,5.16-.04,159,0,332.61,120.12,339.31,317.35.55,16.22-.31,32.35-2.49,48.26h2.08c2.17-15.94,3.02-32.09,2.47-48.34-3.03-89.12-42.42-171.4-110.92-231.68-64.88-57.1-150.77-89.07-235.64-87.66-198.65,3.26-348.45,142.36-348.45,323.54s156.32,323.54,348.47,323.54c99.81,0,195.26-40.46,261.86-111.01,17.3-18.33,32.1-38.14,44.28-59.05h-2.4Z"/>
  <path class="st2" d="M723.12,621.6c-.92.99-1.83,1.99-2.77,2.98-65.81,69.2-160.61,108.89-260.11,108.89-189.56,0-343.77-139.92-343.77-311.9S264.28,112.82,460.29,109.67c1.71-.03,3.41-.04,5.12-.04,157.77,0,330.03,116.57,336.67,307.99,1.12,32.23-3.58,64.12-13.64,94.64h6.75c9.84-30.62,14.42-62.57,13.3-94.87-3.05-87.72-42.66-168.71-111.54-228.04-65.19-56.14-151.47-87.58-236.76-86.19-199.61,3.21-350.13,140.09-350.13,318.4s157.09,318.4,350.18,318.4c101.22,0,197.71-40.41,264.72-110.88,2.35-2.47,4.63-4.97,6.88-7.49h-8.73Z"/>
  <path class="st1" d="M757.64,621.6c-10.31,15.18-22.06,29.71-35.23,43.42-69.39,72.29-169.12,113.75-273.6,113.75-200.03,0-362.76-147.34-362.76-328.44S242.02,125.21,448.84,121.89c1.8-.03,3.6-.04,5.41-.04,166.5,0,348.28,122.74,355.3,324.29.78,22.3-1.09,44.44-5.47,66.11h4.36c4.32-21.73,6.16-43.92,5.38-66.27-3.19-91.66-44.69-176.29-116.87-238.29-68.33-58.7-158.81-91.52-248.19-90.11-209.23,3.36-367.01,146.41-367.01,332.75s164.66,332.75,367.05,332.75c105.64,0,206.49-41.94,276.68-115.06,14.03-14.62,26.48-30.16,37.3-46.41h-5.16Z"/>
  <path class="st5" d="M745.48,621.6c-12.03,19.31-26.35,37.66-42.85,54.75-69.56,72.03-169.36,113.34-273.8,113.34-200.62,0-363.83-147.63-363.83-329.08S221.43,134.84,428.87,131.51c1.81-.03,3.61-.04,5.42-.04,166.99,0,349.31,122.98,356.34,324.93.65,18.79-.58,37.47-3.6,55.85h4.38c2.97-18.43,4.19-37.16,3.53-56-3.2-91.84-44.83-176.64-117.22-238.76-68.54-58.82-159.21-91.74-248.94-90.3-209.86,3.36-368.12,146.7-368.12,333.41s165.15,333.41,368.15,333.41c105.61,0,206.54-41.79,276.91-114.66,17.36-17.98,32.34-37.35,44.82-57.75h-5.08Z"/>
  <path class="st3" d="M781.3,620.98c-9.46,13.29-20.04,26.06-31.72,38.19-69.37,72.03-168.8,113.34-272.79,113.34-200.12,0-362.93-148.09-362.93-330.12S269.9,115.61,476.82,112.27c1.8-.03,3.6-.04,5.41-.04,166.58,0,348.46,123.36,355.48,325.93.86,24.69-1.5,49.18-6.88,73.06h2.21c5.34-23.9,7.68-48.42,6.82-73.13-3.17-91.52-44.44-176.03-116.2-237.94-67.97-58.64-157.96-91.47-246.87-90.02-208.12,3.35-365.07,146.2-365.07,332.28s163.77,332.28,365.08,332.28c104.57,0,204.57-41.55,274.34-114.01,12.12-12.58,23.06-25.86,32.8-39.69h-2.64Z"/>
</svg>